<svg xmlns="http://www.w3.org/2000/svg" viewBox="0 0 48 48">
  <rect width="48" height="48" fill="#0e0e0e"/>
  <!-- M (x: 1-14) -->
  <path d="M1 36V12H4.5L8 23L11.5 12H15V36H11.5V20.5L9.5 28H6.5L4.5 20.5V36Z" fill="#C8A96E"/>
  <!-- G (x: 16-30) -->
  <path d="M16.5 24C16.5 19 19.8 15.5 24 15.5C26.5 15.5 28.5 16.6 29.8 18.4L27.2 20.2C26.4 19.1 25.3 18.3 24 18.3C21.6 18.3 20 20.6 20 24C20 27.4 21.6 29.7 24 29.7C25.2 29.7 26.2 29.1 27 28.2H24.5V25.8H30.5V36H28V34.5C27 35.3 25.6 36 24 36C19.8 36 16.5 29 16.5 24Z" fill="#C8A96E"/>
  <!-- B (x: 32-47) -->
  <path d="M32 12H40C43 12 44.8 13.6 44.8 16.2C44.8 17.8 44 19.1 42.8 19.8C44.5 20.5 45.5 22.1 45.5 24C45.5 27.2 43.5 29 40.2 29H32V12ZM35.5 18.5H39.6C40.8 18.5 41.5 17.8 41.5 16.5C41.5 15.3 40.8 14.7 39.6 14.7H35.5V18.5ZM35.5 26.3H40.1C41.3 26.3 42.2 25.6 42.2 24.2C42.2 22.8 41.3 22.1 40.1 22.1H35.5V26.3Z" fill="#C8A96E"/>
  <!-- Altın çizgi -->
  <rect x="1" y="39" width="46" height="1.8" fill="#C8A96E"/>
</svg>
