<svg xmlns="http://www.w3.org/2000/svg" viewBox="0 0 48 48">
  <rect width="48" height="48" fill="#0e0e0e"/>
  <!-- M -->
  <path d="M2 36V12H7L13 26L19 12H24V36H19V20L15 31H11L7 20V36H2Z" fill="#C8A96E"/>
  <!-- G -->
  <path d="M27 24C27 17.4 31.5 13 37.5 13C41.1 13 44.1 14.7 46 17.5L42.5 19.8C41.4 18.1 39.6 17 37.5 17C34 17 31.5 20 31.5 24C31.5 28 34 31 37.5 31C39.5 31 41.3 30.1 42.4 28.5H38V25H46V36H43V34.1C41.5 35.4 39.6 36.2 37.5 36.2C31.5 36.2 27 31.6 27 24Z" fill="#C8A96E"/>
  <!-- Altın çizgi -->
  <rect x="2" y="40" width="44" height="1.5" fill="#C8A96E"/>
</svg>
